<svg width="249" height="136" viewBox="0 0 249 136" fill="none" xmlns="http://www.w3.org/2000/svg">
<path d="M30.7 109C22.5667 109 16.2 106.7 11.6 102.1C7.06667 97.4333 4.8 90.9 4.8 82.5C4.8 77.9667 5.63333 73.7 7.3 69.7C8.96667 65.6333 11.5667 62.3333 15.1 59.8C18.6333 57.2667 23.1667 56 28.7 56C33.8333 56 38.1667 57.2 41.7 59.6C45.2333 61.9333 47.9 65 49.7 68.8C51.5667 72.6 52.5 76.7333 52.5 81.2C52.5 82.4667 52.0667 83.5333 51.2 84.4C50.4 85.2667 49.3 85.7 47.9 85.7H14C14.5333 90.1667 16.2333 93.7667 19.1 96.5C21.9667 99.1667 26.1 100.5 31.5 100.5C34.5 100.5 37.0333 100.233 39.1 99.7C41.1667 99.1 43.1333 98.3333 45 97.4C45.5333 97.1333 46.1333 97 46.8 97C47.8667 97 48.8 97.3667 49.6 98.1C50.4 98.8333 50.8 99.7667 50.8 100.9C50.8 101.7 50.5333 102.433 50 103.1C49.5333 103.7 48.9333 104.2 48.2 104.6C46 105.867 43.6 106.933 41 107.8C38.4667 108.6 35.0333 109 30.7 109ZM14 78.3H43.5C43.3 74.8333 42.4 72.0333 40.8 69.9C39.2667 67.7667 37.4 66.2 35.2 65.2C33 64.2 30.8333 63.7 28.7 63.7C26.5667 63.7 24.4 64.2 22.2 65.2C20 66.2 18.1333 67.7667 16.6 69.9C15.0667 72.0333 14.2 74.8333 14 78.3ZM88.1406 109C83.4073 109 79.0073 107.967 74.9406 105.9C70.874 103.767 67.6073 100.733 65.1406 96.8C62.674 92.8 61.4406 88.0333 61.4406 82.5C61.4406 76.9 62.674 72.1333 65.1406 68.2C67.6073 64.2667 70.874 61.2667 74.9406 59.2C79.0073 57.0667 83.4073 56 88.1406 56C92.074 56 95.3406 56.5333 97.9406 57.6C100.607 58.6 102.774 59.6667 104.441 60.8C105.774 61.6667 106.441 62.8333 106.441 64.3C106.441 65.2333 106.074 66.1333 105.341 67C104.607 67.8667 103.707 68.3 102.641 68.3C101.907 68.3 101.174 68.1 100.441 67.7C98.7073 66.7667 97.0073 66 95.3406 65.4C93.674 64.8 91.5406 64.5 88.9406 64.5C83.1406 64.5 78.6073 66.1667 75.3406 69.5C72.1406 72.8333 70.5406 77.1667 70.5406 82.5C70.5406 87.8333 72.1406 92.1667 75.3406 95.5C78.6073 98.8333 83.1406 100.5 88.9406 100.5C91.5406 100.5 93.674 100.2 95.3406 99.6C97.0073 98.9333 98.7073 98.1667 100.441 97.3C101.174 96.9 101.907 96.7 102.641 96.7C103.707 96.7 104.607 97.1333 105.341 98C106.074 98.8667 106.441 99.7667 106.441 100.7C106.441 102.167 105.774 103.333 104.441 104.2C102.774 105.267 100.607 106.333 97.9406 107.4C95.3406 108.467 92.074 109 88.1406 109ZM122.361 108.5C121.094 108.5 120.028 108.067 119.161 107.2C118.294 106.333 117.861 105.267 117.861 104V39.1C117.861 37.7667 118.294 36.6667 119.161 35.8C120.028 34.9333 121.094 34.5 122.361 34.5C123.628 34.5 124.694 34.9333 125.561 35.8C126.494 36.6667 126.961 37.7667 126.961 39.1V65.2C129.094 62.8667 131.594 60.7667 134.461 58.9C137.394 56.9667 141.094 56 145.561 56C149.361 56 152.594 56.9 155.261 58.7C157.928 60.4333 159.961 62.8 161.361 65.8C162.761 68.7333 163.461 72 163.461 75.6V104C163.461 105.267 162.994 106.333 162.061 107.2C161.194 108.067 160.128 108.5 158.861 108.5C157.594 108.5 156.528 108.067 155.661 107.2C154.794 106.333 154.361 105.267 154.361 104V76.6C154.361 72.8 153.494 69.8333 151.761 67.7C150.094 65.5 147.294 64.4 143.361 64.4C139.761 64.4 136.628 65.3667 133.961 67.3C131.294 69.2333 128.961 71.4667 126.961 74V104C126.961 105.267 126.494 106.333 125.561 107.2C124.694 108.067 123.628 108.5 122.361 108.5Z" fill="#1E40AF"/>
<path d="M201.4 109C196.267 109 191.767 107.9 187.9 105.7C184.033 103.433 181.033 100.333 178.9 96.4C176.833 92.4 175.8 87.7667 175.8 82.5C175.8 77.2333 176.833 72.6333 178.9 68.7C181.033 64.7 184.033 61.6 187.9 59.4C191.767 57.1333 196.267 56 201.4 56C206.533 56 211 57.1333 214.8 59.4C218.667 61.6 221.667 64.7 223.8 68.7C225.933 72.6333 227 77.2333 227 82.5C227 87.7667 225.933 92.4 223.8 96.4C221.667 100.333 218.667 103.433 214.8 105.7C211 107.9 206.533 109 201.4 109ZM201.4 100.7C203.933 100.7 206.467 100.1 209 98.9C211.533 97.7 213.633 95.7667 215.3 93.1C217.033 90.3667 217.9 86.8 217.9 82.4C217.9 78 217.033 74.4667 215.3 71.8C213.633 69.1333 211.533 67.2333 209 66.1C206.467 64.9 203.933 64.3 201.4 64.3C198.867 64.3 196.3 64.9 193.7 66.1C191.167 67.2333 189.067 69.1333 187.4 71.8C185.733 74.4667 184.9 78 184.9 82.4C184.9 86.8 185.733 90.3667 187.4 93.1C189.067 95.7667 191.167 97.7 193.7 98.9C196.3 100.1 198.867 100.7 201.4 100.7Z" fill="#1E40AF"/>
<path d="M218.4 93C213.267 93 208.767 91.9 204.9 89.7C201.033 87.4333 198.033 84.3333 195.9 80.4C193.833 76.4 192.8 71.7667 192.8 66.5C192.8 61.2333 193.833 56.6333 195.9 52.7C198.033 48.7 201.033 45.6 204.9 43.4C208.767 41.1333 213.267 40 218.4 40C223.533 40 228 41.1333 231.8 43.4C235.667 45.6 238.667 48.7 240.8 52.7C242.933 56.6333 244 61.2333 244 66.5C244 71.7667 242.933 76.4 240.8 80.4C238.667 84.3333 235.667 87.4333 231.8 89.7C228 91.9 223.533 93 218.4 93ZM218.4 84.7C220.933 84.7 223.467 84.1 226 82.9C228.533 81.7 230.633 79.7667 232.3 77.1C234.033 74.3667 234.9 70.8 234.9 66.4C234.9 62 234.033 58.4667 232.3 55.8C230.633 53.1333 228.533 51.2333 226 50.1C223.467 48.9 220.933 48.3 218.4 48.3C215.867 48.3 213.3 48.9 210.7 50.1C208.167 51.2333 206.067 53.1333 204.4 55.8C202.733 58.4667 201.9 62 201.9 66.4C201.9 70.8 202.733 74.3667 204.4 77.1C206.067 79.7667 208.167 81.7 210.7 82.9C213.3 84.1 215.867 84.7 218.4 84.7Z" fill="#1E40AF"/>
</svg>
